HIERARCHY
ROOT root
{
	OFFSET 0.000000 0.000000 0.000000
	CHANNELS 6 Xposition Yposition Zposition Zrotation Yrotation Xrotation
	JOINT lhip
	{
		OFFSET 0.058581 -0.082280 -0.017664
		CHANNELS 3 Zrotation Yrotation Xrotation
		JOINT lknee
		{
			OFFSET 0.043451 -0.386469 0.008037
			CHANNELS 3 Zrotation Yrotation Xrotation
			JOINT lankle
			{
				OFFSET -0.014790 -0.426874 -0.037428
				CHANNELS 3 Zrotation Yrotation Xrotation
				JOINT ltoe
				{
					OFFSET 0.041054 -0.060286 0.122042
					CHANNELS 3 Zrotation Yrotation Xrotation
					End Site
					{
						OFFSET 0.000000 0.000000 0.000000
					}
				}
			}
		}
	}
	JOINT rhip
	{
		OFFSET -0.060310 -0.090513 -0.013543
		CHANNELS 3 Zrotation Yrotation Xrotation
		JOINT rknee
		{
			OFFSET -0.043257 -0.383688 -0.004843
			CHANNELS 3 Zrotation Yrotation Xrotation
			JOINT rankle
			{
				OFFSET 0.019056 -0.420046 -0.034562
				CHANNELS 3 Zrotation Yrotation Xrotation
				JOINT rtoe
				{
					OFFSET -0.034840 -0.062106 0.130323
					CHANNELS 3 Zrotation Yrotation Xrotation
					End Site
					{
						OFFSET 0.000000 0.000000 0.000000
					}
				}
			}
		}
	}
	JOINT lowerback
	{
		OFFSET 0.004439 0.124404 -0.038385
		CHANNELS 3 Zrotation Yrotation Xrotation
		JOINT upperback
		{
			OFFSET 0.004488 0.137956 0.026820
			CHANNELS 3 Zrotation Yrotation Xrotation
			JOINT chest
			{
				OFFSET -0.002265 0.056032 0.002855
				CHANNELS 3 Zrotation Yrotation Xrotation
				JOINT lowerneck
				{
					OFFSET -0.013390 0.211636 -0.033468
					CHANNELS 3 Zrotation Yrotation Xrotation
					JOINT upperneck
					{
						OFFSET 0.010113 0.088937 0.050410
						CHANNELS 3 Zrotation Yrotation Xrotation
						End Site
						{
							OFFSET 0.000000 0.000000 0.000000
						}
					}
				}
				JOINT lclavicle
				{
					OFFSET 0.071702 0.114000 -0.018898
					CHANNELS 3 Zrotation Yrotation Xrotation
					JOINT lshoulder
					{
						OFFSET 0.122921 0.045205 -0.019046
						CHANNELS 3 Zrotation Yrotation Xrotation
						JOINT lelbow
						{
							OFFSET 0.255332 -0.015649 -0.022946
							CHANNELS 3 Zrotation Yrotation Xrotation
							JOINT lwrist
							{
								OFFSET 0.265709 0.012698 -0.007375
								CHANNELS 3 Zrotation Yrotation Xrotation
								End Site
								{
									OFFSET 0.000000 0.000000 0.000000
								}
							}
						}
					}
				}
				JOINT rclavicle
				{
					OFFSET -0.082954 0.112472 -0.023707
					CHANNELS 3 Zrotation Yrotation Xrotation
					JOINT rshoulder
					{
						OFFSET -0.113228 0.046853 -0.008472
						CHANNELS 3 Zrotation Yrotation Xrotation
						JOINT relbow
						{
							OFFSET -0.260127 -0.014369 -0.031269
							CHANNELS 3 Zrotation Yrotation Xrotation
							JOINT rwrist
							{
								OFFSET -0.269108 0.006794 -0.006027
								CHANNELS 3 Zrotation Yrotation Xrotation
								End Site
								{
									OFFSET 0.000000 0.000000 0.000000
								}
							}
						}
					}
				}
			}
		}
	}
}
MOTION
Frames: 7
Frame Time: 0.033333
0.887737 0.665506 1.149103 -84.864199 4.096215 88.918138 5.046852 -0.475337 7.719426 -5.252119 -4.839647 44.554873 -5.773814 6.551213 -1.905802 0.000000 -0.000000 0.000000 3.549136 7.708835 -24.317593 0.441601 -10.389158 27.805279 -1.058072 -6.322073 -14.720804 0.000000 -0.000000 0.000000 2.685885 -5.958690 16.474323 3.917327 -1.600268 7.578117 1.248932 -2.813132 -1.207906 0.507863 1.317311 5.639673 0.794369 -1.607446 7.035068 -24.800496 -0.951635 4.461050 -64.218572 -6.599038 7.897320 12.895042 -33.413220 10.590662 -20.940260 -8.901833 4.559376 24.652258 1.045549 5.312900 61.578515 -1.560138 2.442878 -18.785050 14.851199 -5.307131 10.831141 2.139252 0.195037 
0.855483 0.668361 1.156099 -86.077664 3.606672 87.829133 3.969125 -2.437495 3.505656 -4.920714 -0.700132 50.647920 -4.418770 8.142195 -5.794273 0.000000 -0.000000 0.000000 4.795140 8.001346 -20.067490 0.196772 -8.513304 26.846272 -1.412701 -6.959571 -16.658308 0.000000 -0.000000 0.000000 2.489254 -4.099176 17.038652 3.793785 -1.449677 6.718538 0.966752 -2.249262 -0.647139 0.939063 0.874726 4.986861 0.521829 -2.284065 7.723085 -24.831852 0.136599 4.016135 -63.652339 -4.885755 7.432995 12.440432 -32.947568 10.223728 -17.604411 -10.386839 4.569275 24.822644 1.369959 4.226806 60.527681 0.263432 3.610402 -18.942058 17.241881 -5.487084 6.865531 3.086075 0.391193 
0.824111 0.670707 1.162664 -87.058348 2.733694 86.655357 2.853841 -3.762381 -1.274607 -4.715301 1.559834 54.769066 -3.439847 8.064194 -9.575362 0.000000 -0.000000 0.000000 5.484536 7.431348 -15.689962 -0.058939 -6.436894 25.638801 -1.279076 -7.082207 -18.427089 0.000000 -0.000000 0.000000 1.818582 -1.995423 17.641323 3.672694 -1.431188 5.974317 0.844721 -1.709969 -0.065696 1.505669 0.656576 4.369801 0.364742 -3.295935 8.378365 -24.736707 1.058439 3.575721 -63.247295 -3.547723 7.103911 12.396735 -32.149274 9.575876 -15.882801 -10.960948 3.184770 25.171363 1.668406 3.324424 59.357027 2.711479 4.613172 -18.933335 19.511148 -6.260425 4.350143 3.274102 -0.855362 
0.793153 0.672905 1.167983 -87.897530 1.929574 85.283081 2.151401 -4.524850 -5.994554 -4.496026 2.667433 56.137109 -2.613148 7.923991 -13.082423 0.000000 -0.000000 0.000000 5.907192 6.247989 -10.946359 -0.145939 -4.599235 23.971658 -1.191580 -6.693918 -20.010559 0.000000 -0.000000 0.000000 1.193050 -0.013963 18.445329 3.438773 -1.532842 5.209596 0.858466 -1.022082 0.414374 1.895703 0.523001 4.354771 0.346893 -4.100202 8.933465 -24.314685 1.651512 3.430428 -63.283324 -2.185489 6.492154 13.039862 -31.561759 8.608329 -14.280098 -10.940998 1.553887 25.068642 2.526528 2.738802 58.806588 4.959939 5.163251 -19.282640 22.121862 -7.042288 3.257934 3.803431 -3.224110 
0.762859 0.674879 1.171933 -88.732058 1.216014 84.119347 1.846507 -5.926886 -10.834880 -3.850814 4.119011 55.336214 -2.229444 8.711778 -16.421456 0.000000 -0.000000 0.000000 6.038581 5.097211 -6.390742 -0.156962 -2.907503 22.092793 -0.887157 -6.146481 -21.394398 0.000000 -0.000000 0.000000 0.732966 2.151245 19.218176 3.216307 -1.652404 4.304208 0.980520 -0.387059 0.815479 2.081916 0.426207 4.550397 0.492115 -4.734458 9.387626 -23.824649 1.893699 3.418638 -63.337876 -0.779648 5.866258 13.369720 -30.918718 8.099861 -13.200733 -10.981409 0.485807 24.628481 3.586687 2.028306 58.533272 6.824271 5.680975 -19.794031 24.763033 -7.754707 1.911703 3.907632 -5.174974 
0.733564 0.676604 1.174728 -89.923162 0.432874 83.406934 1.808186 -6.823586 -15.784995 -3.070503 5.280002 52.179710 -0.986756 9.402846 -18.138308 0.000000 -0.000000 0.000000 5.651992 3.930678 -2.558523 -0.017529 -1.150084 20.371319 -0.618648 -5.193730 -22.443066 0.000000 -0.000000 0.000000 0.271616 4.116672 20.052000 2.771579 -1.467810 2.637484 1.038987 0.264479 1.506383 2.385149 0.086980 4.948197 0.623784 -5.560575 9.972329 -23.360284 2.486674 3.040386 -62.987560 0.611723 5.361044 13.130455 -30.138750 8.593500 -12.960142 -11.217319 0.054737 24.103898 4.391905 1.690913 58.454349 9.081010 6.131075 -19.952344 27.371103 -7.852991 0.733010 4.584112 -6.307367 
0.704085 0.678122 1.175781 -91.040784 -0.064264 82.543178 2.288937 -7.292333 -19.861478 -2.093319 6.088679 46.877331 -0.642469 9.538211 -19.672912 0.000000 -0.000000 0.000000 5.078478 2.205775 1.580246 0.174765 0.226918 18.386386 -0.265540 -3.716603 -23.703904 0.000000 -0.000000 0.000000 0.189496 5.695637 20.571559 2.250663 -1.662936 2.438259 0.813021 1.177115 1.505139 2.898969 0.350098 5.271277 0.864102 -6.483324 10.867334 -22.708937 2.830151 2.707222 -62.770690 2.025900 4.638856 13.003193 -29.622656 8.952490 -13.027283 -11.342082 -0.277089 23.644277 5.297316 1.466083 58.570635 11.539731 6.365320 -20.200669 29.884090 -7.025741 0.494756 5.463898 -6.309048 
